<?xml version="1.0" standalone="no"?>
<!DOCTYPE svg PUBLIC "-//W3C//DTD SVG 20010904//EN"
 "http://www.w3.org/TR/2001/REC-SVG-20010904/DTD/svg10.dtd">
<svg version="1.0" xmlns="http://www.w3.org/2000/svg"
 width="1000.000000pt" height="1000.000000pt" viewBox="0 0 1000.000000 1000.000000"
 preserveAspectRatio="xMidYMid meet">
<metadata>
Created by potrace 1.14, written by Peter Selinger 2001-2017
</metadata>
<g transform="translate(0.000000,1000.000000) scale(0.100000,-0.100000)"
fill="#000000" stroke="none">
<path d="M3878 8408 c11 -13 11 -16 0 -14 -7 1 -19 6 -27 10 -10 6 -12 5 -7
-2 5 -8 -4 -12 -26 -12 -19 0 -39 -5 -46 -12 -9 -9 -12 -9 -12 2 0 9 -5 8 -16
-6 -8 -10 -13 -14 -10 -9 2 6 -4 11 -14 11 -13 0 -16 -4 -10 -11 7 -8 5 -12
-5 -12 -8 0 -15 5 -15 11 0 6 -7 2 -15 -8 -11 -14 -15 -16 -15 -5 0 12 -2 12
-9 0 -5 -8 -18 -12 -30 -8 -12 3 -24 0 -28 -5 -4 -7 -1 -8 7 -3 9 5 11 4 6 -3
-5 -9 -13 -9 -27 -2 -10 6 -19 7 -19 2 0 -4 -10 -9 -22 -9 -40 -2 -59 -9 -69
-24 -8 -13 -13 -6 -10 16 1 6 -7 0 -16 -13 -15 -18 -21 -20 -31 -10 -8 8 -12
8 -12 1 0 -6 -7 -14 -16 -17 -8 -3 -12 -2 -9 4 3 6 -1 7 -9 4 -9 -3 -13 -10
-10 -16 3 -5 -2 -9 -12 -8 -33 4 -45 0 -39 -11 4 -6 0 -9 -11 -7 -11 2 -18 -2
-17 -8 1 -6 -8 -11 -20 -10 -13 1 -21 -4 -19 -12 1 -8 -2 -11 -8 -7 -6 4 -17
1 -25 -5 -8 -7 -15 -9 -15 -5 0 5 -8 1 -18 -8 -10 -10 -22 -14 -27 -10 -4 5
-6 1 -3 -7 4 -11 -2 -16 -20 -18 -14 -1 -31 -11 -39 -22 -8 -11 -19 -20 -25
-20 -7 0 -3 7 8 16 13 11 10 10 -13 -2 -18 -10 -33 -24 -33 -32 0 -7 -4 -11
-9 -8 -4 3 -17 -4 -27 -15 -10 -11 -24 -17 -31 -14 -8 2 -11 0 -8 -5 3 -6 -1
-13 -9 -16 -9 -3 -13 -11 -9 -17 3 -5 2 -7 -4 -4 -11 7 -83 -39 -83 -54 0 -6
-4 -7 -10 -4 -5 3 -21 -6 -34 -20 -14 -15 -30 -24 -35 -20 -7 4 -8 0 -4 -11 4
-12 3 -15 -5 -10 -7 4 -12 2 -12 -5 0 -7 -3 -9 -7 -6 -3 4 -17 -5 -30 -19 -13
-14 -28 -22 -35 -18 -7 4 -8 3 -4 -4 4 -7 2 -12 -4 -12 -6 0 -9 -4 -6 -8 3 -5
-13 -16 -34 -26 -22 -10 -40 -24 -40 -32 0 -8 -4 -14 -10 -14 -13 0 -50 -37
-43 -44 3 -3 -7 -8 -21 -12 -15 -3 -31 -15 -37 -25 -6 -12 -15 -17 -22 -12 -8
4 -8 1 1 -9 11 -14 10 -16 -9 -11 -15 4 -20 3 -15 -5 4 -7 2 -12 -4 -12 -6 0
-8 -4 -5 -10 4 -6 -1 -7 -11 -3 -14 5 -16 3 -11 -11 4 -11 3 -15 -4 -10 -6 3
-17 -3 -25 -15 -9 -12 -20 -18 -26 -15 -7 4 -8 2 -4 -5 4 -6 0 -14 -8 -17 -9
-3 -13 -10 -10 -15 3 -5 -3 -6 -12 -2 -13 5 -15 3 -9 -7 6 -10 4 -12 -8 -7
-10 3 -17 2 -17 -3 0 -15 -33 -50 -47 -50 -6 0 -15 -5 -19 -12 -5 -7 -3 -8 6
-3 9 6 11 4 6 -4 -5 -7 -15 -10 -24 -6 -9 3 -13 3 -9 -1 4 -4 -7 -16 -24 -26
-16 -10 -27 -23 -24 -28 3 -6 0 -10 -8 -10 -8 0 -17 -7 -21 -15 -3 -8 -13 -15
-23 -15 -15 0 -16 -2 -3 -10 13 -8 12 -10 -4 -10 -22 0 -67 -45 -57 -57 3 -4
-2 -1 -12 7 -10 7 -17 9 -16 4 4 -22 -2 -35 -13 -28 -8 5 -9 2 -4 -12 4 -10 4
-15 0 -12 -10 10 -46 -11 -39 -23 4 -5 -1 -9 -9 -9 -8 0 -17 -9 -21 -19 -4
-12 -12 -18 -21 -14 -9 3 -14 -1 -14 -12 0 -10 -5 -13 -12 -9 -8 5 -9 2 -5 -9
3 -9 3 -16 -1 -16 -20 3 -32 -2 -30 -13 2 -7 -3 -12 -9 -10 -12 2 -17 -10 -14
-30 0 -4 -7 -4 -16 -1 -11 4 -14 3 -9 -5 4 -7 1 -12 -8 -12 -10 0 -13 -6 -9
-17 4 -11 3 -14 -5 -9 -7 4 -15 1 -18 -8 -3 -9 -10 -13 -15 -10 -5 3 -9 0 -9
-7 0 -6 -8 -18 -17 -25 -14 -11 -14 -13 -3 -11 8 2 5 -1 -7 -7 -13 -5 -23 -14
-23 -18 0 -5 -15 -23 -32 -39 -24 -22 -28 -28 -13 -24 16 4 15 3 -2 -6 -13 -7
-23 -16 -23 -21 0 -5 -4 -7 -9 -3 -5 3 -13 0 -17 -6 -5 -8 -3 -9 6 -4 8 5 11
3 9 -4 -3 -7 -9 -12 -14 -11 -5 1 -13 -8 -17 -20 -4 -12 -12 -19 -18 -15 -5 3
-12 -6 -16 -20 -3 -13 -10 -22 -15 -19 -5 3 -9 -2 -9 -11 0 -10 -5 -13 -12 -9
-8 5 -9 2 -5 -9 4 -11 1 -17 -8 -17 -8 0 -15 -6 -15 -14 0 -8 -5 -18 -12 -22
-7 -5 -8 -3 -3 6 6 9 4 11 -4 6 -7 -5 -10 -14 -7 -22 3 -8 1 -13 -4 -11 -5 1
-16 -7 -25 -18 -9 -11 -13 -14 -9 -6 5 10 3 12 -5 7 -7 -5 -10 -10 -7 -13 10
-10 -16 -45 -29 -39 -9 3 -12 0 -9 -9 6 -16 -20 -48 -30 -38 -3 4 -6 1 -6 -6
0 -7 -4 -10 -9 -7 -5 3 -8 -2 -7 -12 0 -9 -5 -16 -12 -14 -8 1 -11 -2 -7 -8 3
-5 1 -10 -4 -10 -6 0 -11 -7 -11 -15 0 -8 -7 -15 -16 -15 -8 0 -12 -4 -9 -10
3 -5 1 -10 -5 -10 -6 0 -8 -4 -5 -10 3 -5 0 -10 -8 -10 -8 0 -22 -15 -32 -34
-11 -19 -22 -33 -25 -31 -4 3 -12 -7 -19 -21 -6 -14 -16 -22 -21 -19 -6 4 -10
3 -9 -2 4 -16 -14 -44 -33 -54 -16 -9 -19 -8 -13 3 3 7 0 5 -8 -4 -10 -13 -17
-14 -25 -6 -9 9 -10 6 -7 -11 4 -20 2 -21 -12 -9 -12 9 -15 9 -9 1 4 -8 2 -13
-5 -13 -7 0 -10 -3 -6 -6 8 -8 -16 -33 -26 -27 -4 2 -7 1 -6 -4 4 -24 -2 -35
-17 -29 -14 5 -15 4 -5 -8 9 -11 8 -15 -4 -20 -9 -3 -13 -10 -10 -16 3 -5 -2
-10 -12 -10 -15 0 -16 -2 -3 -10 13 -8 12 -10 -3 -10 -10 0 -15 -4 -12 -10 8
-13 -19 -52 -29 -43 -4 4 -4 -1 0 -11 5 -13 4 -17 -4 -12 -7 4 -10 -1 -7 -14
2 -11 0 -18 -6 -15 -5 4 -9 1 -9 -4 0 -23 -2 -27 -23 -50 -12 -13 -16 -21 -8
-16 9 5 8 0 -3 -17 -9 -14 -13 -28 -9 -31 3 -4 1 -7 -5 -7 -7 0 -12 -7 -12
-16 0 -9 -5 -12 -12 -8 -8 5 -8 2 1 -10 12 -15 12 -17 0 -14 -8 2 -13 -3 -11
-11 1 -7 -1 -18 -6 -25 -5 -6 -8 -19 -7 -29 2 -9 -1 -15 -5 -12 -5 3 -11 1
-15 -5 -3 -5 -2 -10 4 -10 6 0 8 -7 5 -15 -4 -8 -10 -13 -14 -10 -13 8 -18
-17 -9 -48 5 -18 4 -25 -3 -21 -6 4 -9 -5 -8 -22 1 -16 1 -32 0 -36 -1 -5 -3
-12 -4 -17 -2 -16 -16 -25 -16 -11 0 7 -2 11 -5 8 -8 -8 6 -39 14 -33 4 2 8
-2 8 -10 0 -8 -5 -11 -10 -8 -5 3 -7 0 -5 -8 3 -8 11 -13 18 -11 11 3 11 0 1
-12 -7 -9 -11 -23 -7 -31 3 -8 2 -15 -2 -15 -4 0 -7 -15 -7 -34 0 -19 3 -32 7
-30 8 5 11 -9 9 -38 -1 -9 3 -19 9 -23 8 -5 8 -11 -1 -21 -9 -11 -9 -14 0 -14
8 0 10 -8 6 -20 -5 -16 -3 -19 12 -13 15 5 16 3 6 -8 -15 -15 -17 -33 -4 -25
5 3 8 -5 7 -19 0 -14 -5 -25 -10 -25 -5 0 -6 -3 -3 -6 4 -4 13 -1 22 6 18 15
19 11 5 -24 -7 -19 -6 -25 3 -23 7 1 11 -6 9 -17 -2 -11 1 -15 8 -11 8 5 10 0
8 -12 -2 -11 3 -27 9 -35 7 -8 14 -27 15 -42 1 -14 6 -26 11 -26 4 0 5 -4 2
-10 -3 -5 -1 -10 5 -10 6 0 10 -6 8 -14 -2 -8 5 -21 14 -28 10 -7 19 -23 21
-35 2 -12 7 -26 12 -30 4 -5 5 -2 0 6 -6 10 -4 12 4 7 7 -5 10 -15 7 -23 -3
-8 -2 -12 2 -10 4 3 13 -1 20 -9 8 -9 9 -14 2 -14 -7 0 -5 -6 4 -15 8 -8 21
-15 28 -15 10 0 9 -3 -2 -10 -12 -8 -12 -10 -1 -10 8 0 11 -3 8 -6 -4 -4 1
-14 11 -23 10 -9 21 -24 25 -33 3 -10 14 -18 23 -18 14 0 14 -3 4 -16 -11 -12
-11 -15 1 -12 8 2 13 -3 12 -9 -2 -7 1 -13 7 -13 16 0 61 -51 54 -62 -4 -7 2
-8 17 -3 21 7 22 6 10 -9 -12 -14 -11 -16 8 -16 11 0 21 -4 21 -9 0 -5 9 -13
20 -16 11 -3 20 -13 20 -22 0 -13 2 -14 17 -2 11 10 14 10 9 2 -4 -8 -1 -13 9
-13 9 0 13 -4 10 -10 -3 -5 0 -10 8 -10 8 0 22 -10 31 -23 9 -12 14 -16 10 -9
-5 11 -2 11 15 0 12 -7 21 -16 21 -21 0 -4 5 -5 10 -2 6 3 13 -1 16 -9 3 -9
13 -16 21 -16 8 0 12 -4 9 -9 -3 -5 1 -12 10 -15 8 -3 12 -2 9 4 -3 6 1 7 9 4
9 -3 13 -10 10 -15 -3 -5 2 -9 10 -9 9 0 16 -4 16 -10 0 -5 7 -10 15 -10 8 0
15 -4 15 -9 0 -5 13 -14 30 -21 16 -7 27 -17 23 -23 -4 -6 0 -8 9 -5 9 4 22
-4 33 -18 10 -13 24 -24 31 -24 8 0 14 -5 14 -11 0 -5 5 -7 10 -4 5 3 10 1 10
-5 0 -7 7 -10 14 -7 10 4 13 1 10 -8 -4 -9 1 -12 13 -10 19 3 65 -33 58 -46
-3 -4 6 -6 20 -4 16 1 25 -3 25 -11 0 -13 12 -18 33 -15 4 0 7 -4 7 -10 0 -5
5 -7 10 -4 6 3 10 -1 10 -9 0 -9 9 -16 20 -16 11 0 20 -4 20 -8 0 -4 14 -16
31 -26 18 -11 29 -13 24 -6 -6 9 -3 10 14 0 12 -6 19 -15 16 -20 -3 -5 4 -7
15 -5 11 2 20 -1 20 -6 0 -6 4 -7 10 -4 5 3 10 1 10 -5 0 -7 6 -10 13 -7 6 2
18 -3 25 -12 9 -10 11 -11 6 -2 -5 11 -3 13 10 8 10 -4 20 -7 22 -7 3 0 2 -5
-2 -11 -5 -8 -1 -8 14 0 14 7 23 8 27 1 3 -5 15 -15 27 -21 16 -9 19 -8 12 3
-7 11 -5 11 9 0 9 -8 21 -11 26 -8 5 4 13 1 17 -5 5 -8 3 -9 -6 -4 -9 5 -11 4
-6 -4 6 -9 11 -9 22 0 11 9 14 9 14 -1 0 -7 7 -10 15 -6 8 3 15 1 15 -5 0 -6
7 -9 15 -5 8 3 15 1 15 -3 0 -5 11 -8 25 -7 13 2 22 -1 19 -5 -3 -5 -1 -9 5
-9 5 0 12 6 14 13 3 6 6 3 6 -7 1 -11 4 -16 7 -13 4 3 15 2 25 -4 14 -7 19 -6
19 3 0 10 2 10 9 -1 5 -7 14 -10 20 -7 6 4 11 3 11 -1 0 -5 14 -10 32 -11 18
-2 36 -8 40 -15 6 -9 8 -8 8 3 0 13 1 13 10 0 7 -11 10 -12 10 -2 0 10 3 10
15 -1 8 -9 24 -13 35 -10 13 3 20 0 20 -8 0 -11 2 -11 10 1 5 8 10 10 10 4 0
-7 7 -15 16 -18 8 -3 12 -2 9 4 -10 16 11 11 25 -5 8 -9 20 -13 29 -10 31 13
52 14 45 4 -3 -6 2 -10 12 -9 31 4 44 1 44 -9 0 -5 -8 -8 -17 -7 -10 2 -24 -5
-33 -14 -8 -9 -12 -11 -8 -5 4 6 -1 11 -11 11 -11 0 -17 -6 -14 -12 3 -8 -2
-11 -16 -7 -17 4 -21 1 -21 -16 0 -12 -4 -19 -10 -16 -5 3 -7 0 -4 -8 3 -8 -2
-20 -11 -27 -11 -9 -12 -16 -5 -25 8 -10 8 -15 -1 -21 -8 -5 -9 -3 -4 6 5 9 4
11 -4 6 -9 -6 -9 -11 1 -24 11 -14 10 -15 -7 -9 -20 7 -20 7 -1 -8 12 -9 15
-15 7 -15 -8 0 -11 -6 -7 -16 4 -10 2 -13 -6 -8 -7 5 -9 2 -5 -8 3 -9 0 -24
-7 -34 -16 -23 -17 -56 -2 -47 6 4 5 0 -2 -9 -10 -13 -10 -17 0 -21 7 -3 4 -6
-7 -6 -17 -1 -17 -3 -5 -11 9 -6 11 -10 3 -10 -7 0 -10 -7 -7 -15 4 -8 1 -15
-5 -15 -6 0 -11 -5 -11 -11 0 -5 4 -7 10 -4 6 3 7 -1 4 -9 -3 -9 -11 -13 -16
-10 -6 4 -5 -3 1 -15 11 -19 8 -25 -10 -23 -3 1 -6 -5 -6 -13 0 -8 5 -12 10
-8 5 3 4 -5 -3 -17 -6 -12 -9 -24 -6 -27 3 -3 -2 -12 -12 -20 -9 -8 -11 -12
-4 -8 16 8 16 -27 0 -43 -6 -6 -12 -24 -13 -39 -1 -17 -7 -27 -15 -25 -11 3
-11 0 0 -13 10 -13 10 -18 -1 -33 -8 -9 -14 -26 -14 -37 0 -11 -4 -23 -10 -27
-6 -5 -4 -8 4 -8 11 0 9 -4 -5 -15 -11 -8 -14 -15 -6 -15 6 0 12 -5 12 -11 0
-5 -5 -7 -12 -3 -8 5 -9 0 -6 -14 4 -15 0 -25 -10 -32 -15 -8 -15 -11 -2 -20
13 -8 12 -10 -3 -10 -15 0 -16 -3 -7 -20 8 -16 8 -20 -2 -18 -8 2 -12 -5 -10
-16 2 -13 -1 -16 -10 -10 -10 6 -10 4 1 -9 11 -14 11 -18 -3 -23 -9 -3 -13
-10 -10 -15 3 -5 0 -9 -6 -9 -6 0 -8 -5 -5 -11 4 -5 0 -18 -9 -28 -9 -10 -19
-31 -22 -47 -3 -16 -9 -31 -15 -32 -5 -2 -7 -7 -4 -12 3 -5 -2 -16 -11 -24
-11 -12 -12 -16 -2 -16 8 -1 6 -6 -6 -15 -11 -8 -16 -15 -12 -15 5 0 3 -6 -3
-13 -6 -8 -8 -17 -4 -20 3 -4 1 -7 -5 -7 -6 0 -9 -9 -7 -20 2 -11 0 -18 -6
-15 -5 4 -10 -1 -10 -9 -3 -36 -5 -41 -17 -38 -10 2 -10 -3 -1 -19 6 -12 7
-19 1 -15 -5 3 -13 -1 -16 -10 -4 -10 -2 -13 7 -8 8 5 7 2 -2 -9 -7 -9 -10
-17 -5 -17 4 0 -1 -7 -12 -16 -10 -8 -13 -13 -6 -9 13 7 17 -11 3 -19 -5 -3
-9 -17 -10 -31 -3 -48 -4 -55 -13 -55 -4 0 -8 -5 -8 -11 0 -5 6 -7 13 -4 6 4
3 -1 -7 -9 -15 -12 -16 -16 -5 -16 8 0 10 -3 4 -8 -6 -4 -11 -18 -13 -32 -4
-56 -13 -104 -23 -122 -5 -10 -7 -23 -4 -28 3 -6 2 -10 -3 -10 -6 0 -13 -7
-16 -16 -4 -10 -2 -13 7 -8 9 6 9 4 -1 -8 -7 -9 -11 -22 -10 -29 2 -8 -2 -13
-8 -12 -6 1 -11 -4 -11 -12 0 -8 5 -12 10 -8 5 3 1 -6 -8 -21 -10 -14 -22 -26
-27 -26 -5 0 -6 -5 -2 -12 5 -8 2 -9 -10 -5 -9 4 -15 3 -11 -2 3 -5 -1 -16 -9
-24 -8 -8 -12 -17 -9 -21 3 -3 0 -12 -6 -20 -8 -10 -9 -16 -1 -21 5 -3 10 -11
10 -16 0 -6 -5 -7 -11 -3 -6 3 -5 -4 3 -17 16 -26 17 -37 5 -56 -9 -14 26 -36
38 -25 5 4 5 2 1 -5 -4 -7 -14 -9 -24 -6 -9 3 -14 3 -11 -1 9 -9 49 -16 48 -8
-1 4 -1 15 0 25 1 17 2 17 17 3 8 -9 20 -17 25 -17 36 -5 98 -32 93 -41 -3 -4
2 -8 10 -8 9 0 16 -5 16 -12 0 -6 3 -8 6 -5 4 3 16 1 28 -5 11 -7 25 -11 29
-10 5 1 6 -2 3 -7 -4 -5 -2 -12 4 -16 5 -3 10 -1 10 6 0 6 9 1 21 -12 11 -13
18 -18 14 -11 -3 6 -1 12 4 12 6 0 11 -3 11 -7 0 -12 51 -33 78 -33 13 0 21
-3 19 -8 -3 -4 11 -8 31 -10 19 -1 42 -8 51 -15 9 -8 12 -8 8 -1 -4 8 2 11 17
10 13 0 22 -4 20 -7 -2 -4 5 -9 16 -12 11 -3 20 0 20 6 0 7 4 6 10 -3 5 -8 12
-11 16 -7 4 4 13 -1 20 -11 10 -12 13 -13 14 -3 0 10 5 10 25 -3 25 -16 28
-16 83 13 20 10 27 10 41 -3 10 -9 22 -16 27 -16 5 0 2 5 -6 10 -9 6 -10 10
-3 10 6 0 19 -9 27 -21 8 -12 19 -18 25 -14 6 3 11 2 11 -2 0 -5 20 -17 45
-27 25 -11 50 -25 56 -33 7 -7 20 -11 30 -8 12 4 21 1 25 -9 5 -12 10 -13 26
-5 15 8 19 8 14 0 -5 -7 3 -11 23 -11 16 0 32 -6 34 -12 4 -10 6 -9 6 1 1 11
4 11 18 0 13 -11 15 -11 9 -1 -7 11 -4 11 12 1 12 -7 18 -17 16 -21 -3 -4 0
-8 7 -8 6 0 9 -8 6 -19 -3 -13 0 -18 8 -15 7 3 15 -5 18 -16 3 -12 10 -19 16
-15 6 3 11 2 11 -4 0 -14 101 -10 124 5 10 7 25 10 33 7 12 -5 12 -7 1 -14
-10 -7 -11 -9 0 -9 8 0 10 -5 6 -12 -5 -9 -2 -9 9 1 11 8 17 9 17 3 0 -6 6 -9
13 -6 8 3 13 18 12 34 -1 16 2 27 7 24 4 -3 8 0 8 5 0 6 -4 11 -9 11 -11 0 -9
19 3 39 6 9 5 12 -1 8 -6 -4 -13 0 -17 8 -11 30 45 29 70 -1 8 -10 12 -12 8
-4 -6 12 -4 13 7 3 7 -7 23 -13 36 -13 13 0 23 -4 23 -8 0 -5 17 -10 38 -11
20 -2 45 -3 55 -4 9 -1 17 -4 17 -8 0 -12 39 -17 44 -5 3 7 5 7 5 0 1 -6 18
-9 41 -7 22 2 40 -1 40 -5 0 -5 12 -8 28 -7 15 1 33 -2 40 -8 8 -6 12 -6 12 1
0 5 9 8 20 5 11 -3 17 -10 14 -17 -3 -6 2 -2 10 8 9 11 16 15 16 9 0 -8 9 -9
31 -3 27 8 29 7 18 -6 -11 -13 -9 -14 15 -3 23 11 29 10 37 -2 7 -11 9 -11 9
0 0 9 8 12 25 9 14 -3 25 -1 25 5 0 5 7 4 15 -3 12 -10 15 -10 15 1 0 12 2 12
9 0 6 -10 10 -10 16 -1 6 9 10 9 16 -1 7 -11 9 -11 9 -1 0 9 7 11 21 7 15 -5
19 -4 15 4 -9 14 16 10 26 -4 5 -6 8 -5 8 2 0 9 13 12 40 10 22 -2 40 1 40 6
0 5 7 4 15 -3 8 -7 15 -8 15 -3 0 5 10 9 23 10 12 0 31 4 41 8 15 7 17 5 11
-6 -8 -12 -6 -12 8 0 9 7 23 11 31 8 8 -3 17 -1 20 6 3 8 5 8 5 -2 1 -11 4
-11 16 -1 12 10 15 10 15 -1 0 -9 5 -7 11 5 9 15 13 16 20 5 6 -10 9 -10 9 -2
0 7 10 13 23 12 12 0 36 1 54 3 24 3 30 0 28 -11 -1 -9 1 -25 6 -36 4 -11 8
-14 8 -7 1 10 6 9 18 -3 16 -16 17 -16 30 1 7 10 13 13 13 6 0 -6 7 -9 15 -6
8 4 12 11 8 17 -4 6 -1 7 6 3 7 -5 22 0 34 11 21 18 21 18 7 -1 -14 -18 -14
-19 10 -6 14 8 29 13 34 12 4 -2 13 1 20 6 6 4 25 9 41 11 17 2 32 7 33 12 2
6 11 4 20 -3 13 -11 14 -11 8 0 -10 16 25 13 36 -3 5 -6 8 -5 8 3 0 6 12 12
28 12 15 0 34 6 40 12 10 10 15 10 22 -2 7 -11 10 -11 10 -2 0 7 5 10 11 7 6
-4 17 1 25 11 15 18 15 18 10 -1 l-6 -20 15 20 c9 11 18 19 20 18 13 -8 25 -2
19 9 -5 7 -2 9 8 5 9 -3 24 2 35 11 10 9 28 22 39 29 10 6 18 16 17 21 -1 6 4
13 13 16 10 4 13 2 8 -7 -4 -6 3 -3 17 8 13 11 21 16 17 11 -4 -5 0 -15 10
-23 16 -12 15 -13 -3 -6 -17 6 -18 4 -8 -9 7 -8 10 -18 6 -21 -3 -4 -1 -7 6
-7 7 0 11 -7 8 -15 -4 -8 -1 -17 5 -21 7 -5 8 -2 3 6 -5 9 -4 11 3 6 7 -4 12
-12 12 -17 0 -14 47 -59 54 -52 3 4 6 1 6 -6 0 -6 8 -11 18 -9 9 2 16 -2 15
-9 -2 -7 4 -10 13 -6 9 3 20 0 25 -8 5 -8 9 -9 9 -4 0 6 9 11 20 12 13 1 18
-2 13 -10 -5 -9 -3 -9 8 -1 8 6 26 11 42 10 18 -1 27 3 28 14 0 10 3 9 9 -5 5
-11 9 -14 9 -7 1 7 7 12 14 11 27 -3 38 1 31 14 -5 8 -2 8 9 -2 13 -11 17 -11
17 -1 0 8 3 10 7 7 3 -4 13 -1 21 6 13 10 14 9 7 -3 -7 -12 -6 -13 7 -3 8 7
18 10 21 6 4 -3 7 -2 7 4 0 6 8 9 19 6 10 -3 22 0 25 6 4 6 18 11 32 11 14 0
22 4 19 10 -9 15 4 12 21 -5 9 -8 12 -15 7 -15 -4 0 3 -7 15 -16 12 -8 20 -19
17 -24 -3 -4 2 -11 11 -14 10 -4 13 -2 9 7 -4 6 0 4 8 -5 8 -10 19 -18 26 -18
6 0 11 -5 11 -11 0 -8 5 -8 15 1 8 7 15 8 15 3 0 -12 105 -10 133 2 9 4 26 5
37 2 10 -3 25 2 31 10 10 11 14 11 20 1 7 -10 9 -10 9 -1 0 7 6 10 14 7 8 -3
17 -1 20 5 4 6 14 7 22 4 9 -3 20 0 25 8 7 12 9 12 9 -1 0 -13 1 -13 10 0 6
10 10 11 10 3 0 -7 7 -13 16 -13 8 0 12 -5 8 -11 -4 -6 1 -9 14 -7 11 2 28 -6
38 -17 11 -12 15 -15 10 -8 -12 18 9 17 27 -1 8 -8 23 -15 33 -15 11 0 36 -2
56 -4 24 -3 36 -1 32 5 -4 6 3 5 15 -1 16 -9 21 -9 21 1 0 9 3 9 10 -2 7 -11
10 -11 10 -2 0 7 5 10 11 6 6 -3 15 0 20 7 7 12 9 12 9 0 0 -11 3 -11 15 -1 8
7 22 10 30 6 11 -4 14 -2 9 6 -5 8 -2 9 9 5 10 -3 17 -2 17 3 0 5 7 7 15 4 8
-4 15 -2 15 3 0 5 6 10 13 11 39 5 54 9 67 17 8 5 25 10 38 11 13 2 31 9 40
16 13 11 15 11 7 -2 -6 -12 -5 -13 6 -2 7 6 21 12 31 12 10 0 18 5 18 11 0 8
5 7 16 -1 12 -11 15 -11 12 0 -2 9 6 14 22 15 14 1 24 6 23 13 -2 8 4 9 23 2
14 -6 23 -6 20 -1 -3 5 1 12 10 15 10 4 13 2 8 -7 -5 -9 -4 -9 7 1 7 6 22 12
34 12 12 0 27 6 34 12 11 11 12 10 6 -2 -6 -12 -5 -13 6 -2 7 6 28 12 47 12
21 0 31 4 26 11 -5 8 -1 8 14 0 24 -13 43 -15 24 -2 -9 5 5 8 37 8 28 0 58 6
68 14 11 9 14 10 9 2 -4 -7 -2 -13 3 -13 6 0 11 6 11 13 0 8 4 7 10 -3 6 -9
10 -10 10 -3 0 6 9 10 20 8 11 -2 20 0 20 5 0 4 8 6 18 3 10 -2 24 3 32 11 10
12 16 14 26 5 11 -9 14 -8 14 0 0 7 5 9 10 6 6 -3 10 -1 10 5 0 6 5 8 11 5 6
-4 17 1 25 11 15 18 15 18 9 0 -6 -19 -5 -19 13 -3 10 9 22 14 25 10 4 -3 7
-1 7 6 0 7 5 9 10 6 6 -3 10 -2 10 3 0 6 9 8 20 5 11 -3 20 0 20 6 0 9 5 9 20
1 11 -6 20 -7 19 -3 -3 20 2 25 15 14 11 -9 16 -9 22 0 5 8 3 9 -6 4 -8 -5
-11 -4 -7 2 4 6 18 9 32 8 14 -2 25 1 25 6 0 5 3 8 8 8 26 -4 62 3 57 11 -4 6
6 8 24 6 18 -2 29 1 28 8 -1 6 8 10 21 10 12 -1 22 3 22 8 0 6 7 7 16 4 10 -4
13 -2 8 6 -5 7 1 9 20 6 14 -3 26 -1 26 4 0 5 5 6 10 3 6 -3 10 -2 10 2 0 8
15 12 58 15 6 1 12 4 12 8 0 4 7 7 15 8 8 1 22 3 30 4 8 1 17 8 19 15 3 8 11
11 18 7 8 -5 9 -2 4 11 -5 15 -4 16 8 6 12 -10 17 -9 28 8 7 12 19 21 26 21 7
0 11 4 8 9 -3 5 1 12 10 15 9 3 12 11 8 18 -5 8 -2 9 12 4 10 -4 15 -4 12 0
-4 4 -3 15 3 26 8 15 14 17 24 8 9 -8 17 -7 28 4 8 8 17 12 21 9 3 -4 6 -1 6
5 0 7 -4 12 -9 12 -12 0 -9 53 4 62 6 5 5 8 -4 8 -10 0 -11 3 -3 13 7 8 7 18
2 27 -5 9 -5 19 2 27 8 10 7 13 -3 13 -11 0 -11 2 -1 9 14 9 13 32 -3 43 -6 5
-5 8 2 8 8 0 13 16 13 42 1 81 4 98 15 98 5 0 4 4 -4 9 -12 8 -12 12 -2 25 7
9 11 25 8 36 -3 11 -1 20 5 20 5 0 7 4 3 9 -3 5 0 13 6 17 8 4 7 9 -2 15 -9 5
-10 9 -2 9 6 0 9 9 6 20 -3 13 0 20 8 20 10 0 10 3 1 12 -9 9 -8 16 4 29 10
11 13 23 8 31 -15 23 -13 40 3 34 13 -5 14 -4 3 9 -7 8 -9 15 -5 15 4 0 1 8
-6 17 -8 10 -9 14 -2 10 8 -5 11 2 11 23 -1 16 -6 30 -12 30 -6 0 -5 5 2 12
15 15 16 32 2 23 -7 -4 -9 3 -6 18 2 14 -3 35 -12 48 -9 13 -10 19 -3 15 9 -6
8 1 -3 22 -8 16 -12 32 -9 36 4 3 1 6 -6 6 -8 0 -11 6 -7 16 3 9 2 12 -4 9 -6
-4 -15 7 -21 24 -6 17 -15 28 -20 25 -5 -3 -6 2 -3 10 3 9 1 16 -5 16 -6 0
-11 14 -11 30 0 17 -4 30 -10 30 -5 0 -10 5 -10 11 0 5 4 8 8 5 5 -3 9 1 9 9
0 8 -3 14 -6 13 -3 0 -13 0 -21 1 -12 1 -13 3 -1 10 12 7 11 12 -1 30 -8 11
-18 18 -22 13 -4 -4 -7 -2 -6 3 5 22 0 68 -7 62 -7 -7 -32 22 -33 37 0 6 7 1
15 -10 14 -18 15 -17 4 8 -7 15 -16 25 -20 22 -9 -5 -13 10 -10 35 2 7 -2 10
-8 7 -5 -4 -12 -2 -16 4 -3 5 -1 10 5 10 6 0 -1 11 -15 25 -14 14 -25 30 -25
35 0 5 -7 16 -16 24 -12 12 -12 16 -2 16 8 0 7 4 -4 11 -10 5 -18 17 -18 24 0
8 -5 15 -11 15 -5 0 -7 4 -4 10 3 5 -1 10 -10 10 -9 0 -14 4 -10 10 3 5 -5 20
-17 32 -13 13 -22 28 -20 34 1 7 -5 15 -14 18 -10 4 -14 12 -10 22 4 11 -1 18
-14 21 -11 3 -20 14 -20 24 0 10 -5 21 -12 25 -7 5 -9 2 -4 -7 4 -8 -3 -1 -16
16 -13 16 -21 30 -18 31 3 1 -4 10 -15 20 -12 11 -14 15 -5 9 13 -9 13 -8 1 8
-7 9 -21 17 -30 18 -11 0 -12 2 -3 6 10 4 10 8 2 19 -9 10 -8 12 9 9 14 -2 18
1 14 11 -3 9 1 14 14 14 10 0 25 6 32 13 11 10 12 9 6 -3 -5 -8 4 -4 20 10 16
14 24 18 20 10 -8 -13 -6 -13 8 -2 9 8 21 11 27 7 6 -4 9 -2 8 3 -2 6 -1 9 2
8 10 -2 38 29 33 37 -2 4 3 7 11 7 9 0 16 5 16 11 0 5 5 7 12 3 7 -5 8 -3 4 5
-5 8 -1 14 12 18 12 3 18 11 16 18 -3 7 5 15 21 19 16 4 23 11 19 18 -5 8 -2
9 9 5 9 -3 16 -3 16 1 -1 4 -1 14 0 22 1 13 2 13 11 0 8 -13 10 -13 10 2 0 11
5 15 15 12 11 -5 13 -2 8 12 -4 12 -3 15 5 10 7 -4 15 -1 18 8 3 9 10 13 15
10 5 -3 9 2 9 11 0 11 5 15 15 11 8 -3 14 0 12 7 -1 7 4 11 12 9 12 -3 12 -1
0 14 -11 14 -11 16 0 10 9 -6 21 0 36 18 12 14 25 22 29 18 4 -4 6 0 4 8 -2 9
3 14 11 12 12 -3 12 -1 1 15 -8 10 -10 15 -6 11 5 -4 15 0 23 10 8 9 11 11 7
3 -5 -9 -3 -12 4 -7 7 4 12 14 12 22 0 8 5 12 10 9 9 -6 14 8 11 28 -1 5 3 6
7 3 11 -7 52 27 52 42 0 6 9 16 21 22 11 7 18 14 15 17 -3 3 2 12 12 20 9 8
11 11 3 7 -9 -5 -12 -3 -7 4 4 7 14 12 22 12 8 0 13 3 13 8 -3 19 2 33 10 27
6 -3 8 4 6 15 -2 11 0 18 6 15 5 -4 9 -1 9 5 0 6 5 8 10 5 9 -6 14 8 11 28 0
4 6 7 14 7 8 0 14 3 14 8 -3 17 2 35 8 29 8 -9 35 42 28 54 -3 4 6 16 20 25
13 9 22 20 19 25 -3 5 0 9 6 9 6 0 8 5 5 10 -3 6 -1 10 5 10 7 0 10 7 7 14 -4
11 -1 13 10 9 13 -5 15 -2 10 11 -4 9 -3 15 2 12 5 -3 12 1 15 10 4 10 2 13
-7 9 -6 -4 -1 3 13 14 15 13 20 21 11 21 -8 0 0 13 19 32 22 21 27 29 14 25
-18 -7 -18 -6 -2 6 10 8 15 17 11 20 -3 4 2 9 11 13 9 3 16 10 16 16 0 5 -6 6
-12 2 -7 -4 -5 2 5 14 11 12 16 26 11 33 -4 8 -3 10 4 5 8 -5 12 1 12 16 0 18
2 20 10 8 5 -8 10 -10 10 -4 0 5 -6 16 -12 23 -10 11 -10 13 0 7 7 -4 12 -1
12 8 0 9 5 16 11 16 5 0 8 4 5 9 -4 5 -2 11 4 13 5 1 11 13 13 25 1 11 9 29
17 39 13 16 13 17 -2 11 -15 -5 -16 -4 -6 13 7 10 16 16 20 14 4 -3 3 7 -2 22
-9 22 -8 25 3 16 10 -8 13 -6 13 9 0 10 -4 19 -9 19 -4 0 -5 5 -2 10 4 6 12 7
18 3 7 -4 6 0 -2 10 -10 13 -10 17 -1 17 10 0 10 3 0 15 -9 11 -10 15 -1 15 8
0 10 8 6 21 -5 16 -4 19 5 14 9 -6 11 -4 5 6 -13 20 -13 49 -1 49 6 0 4 5 -4
10 -12 8 -12 10 5 10 19 1 19 1 2 11 -9 6 -15 15 -12 20 4 5 11 7 16 4 10 -7
1 24 -13 42 -5 7 -5 14 2 18 6 3 8 11 5 16 -4 5 0 9 7 9 10 0 9 3 -2 9 -8 6
-19 7 -25 4 -5 -4 -2 2 7 13 13 14 14 23 6 38 -7 13 -7 17 0 12 11 -7 11 31 0
49 -9 16 -6 65 3 59 16 -9 10 3 -8 17 -14 12 -16 12 -8 0 5 -9 4 -12 -3 -7 -6
4 -9 13 -6 21 4 8 10 12 15 9 14 -9 10 3 -7 21 -13 12 -14 19 -4 30 10 12 10
15 0 15 -8 0 -10 3 -7 7 4 3 1 13 -6 21 -10 13 -9 15 7 9 16 -6 17 -5 6 8 -10
12 -10 18 1 33 13 15 12 16 -2 4 -14 -10 -18 -10 -23 3 -3 9 -2 14 3 11 5 -3
9 6 9 19 0 14 -3 25 -7 25 -4 0 -7 9 -8 20 -1 13 2 18 10 13 7 -3 4 3 -5 14
-19 21 -24 38 -8 28 11 -7 -19 53 -37 73 -7 7 -13 16 -13 18 0 3 6 2 13 -2 6
-4 4 2 -5 13 -10 11 -18 27 -18 36 0 9 -6 17 -12 17 -9 0 -8 4 2 10 10 6 11
10 3 10 -7 0 -13 7 -13 16 0 9 -5 12 -12 8 -9 -5 -9 -2 1 9 11 14 11 17 0 17
-11 0 -11 2 1 10 13 8 12 10 -2 10 -10 0 -18 5 -18 11 0 5 4 8 8 5 5 -3 9 1 9
9 0 8 -4 12 -8 9 -4 -2 -10 0 -14 6 -4 6 -11 8 -16 5 -5 -3 -6 1 -3 10 7 17
-14 48 -27 39 -8 -4 -14 17 -10 38 0 4 -6 5 -14 2 -8 -4 -15 -1 -15 6 0 6 -5
8 -12 4 -10 -6 -10 -4 0 8 12 14 10 16 -10 11 -18 -4 -20 -3 -8 6 12 9 13 11
1 11 -8 0 -30 17 -49 38 -20 20 -29 28 -21 17 13 -18 13 -19 -3 -7 -10 8 -20
22 -23 33 -4 10 -15 19 -27 19 -14 0 -18 5 -14 15 3 8 2 14 -2 14 -17 -2 -51
14 -46 22 3 5 -2 9 -10 9 -9 0 -16 7 -16 15 0 8 -6 14 -12 12 -7 -1 -12 3 -11
10 2 7 -4 10 -12 7 -14 -6 -20 7 -16 30 1 5 -5 4 -13 -4 -13 -10 -16 -10 -16
4 0 10 -4 14 -10 11 -5 -3 -10 -1 -10 4 0 6 -7 11 -16 11 -8 0 -12 5 -9 10 3
6 -1 10 -10 10 -9 0 -19 9 -22 20 -3 11 -9 17 -14 14 -5 -3 -20 6 -33 20 -13
14 -27 26 -31 26 -6 0 -36 25 -90 77 -13 12 -26 19 -29 16 -3 -4 -6 1 -6 10 0
9 -7 17 -16 17 -10 0 -14 6 -11 14 4 10 1 13 -8 9 -8 -3 -18 2 -21 11 -3 9
-13 16 -21 16 -8 0 -12 4 -9 9 3 4 -6 13 -20 20 -16 7 -22 16 -18 24 4 6 4 9
-1 5 -4 -4 -14 0 -22 10 -8 9 -11 11 -7 3 5 -10 3 -12 -5 -7 -7 5 -10 14 -7
21 3 9 -2 12 -15 10 -11 -2 -17 0 -14 6 4 5 1 9 -5 9 -6 0 -9 4 -6 9 3 5 -4
11 -15 14 -12 3 -18 10 -14 16 4 7 0 8 -10 5 -10 -4 -15 -2 -13 7 2 8 -4 13
-14 13 -11 -1 -14 4 -11 14 4 10 2 13 -5 8 -11 -7 -17 6 -13 28 1 5 -5 3 -14
-4 -14 -11 -16 -11 -13 1 2 8 -3 13 -9 12 -7 -2 -12 0 -12 5 3 19 -2 33 -11
27 -6 -3 -13 1 -16 9 -3 9 -13 16 -21 16 -8 0 -11 5 -8 10 3 6 1 10 -5 10 -6
0 -8 5 -4 12 4 6 3 8 -3 5 -12 -7 -44 28 -35 39 4 5 -1 2 -11 -5 -15 -12 -17
-12 -10 4 5 14 3 17 -10 12 -12 -4 -14 -2 -10 10 5 12 3 14 -7 8 -10 -6 -12
-4 -6 11 4 10 4 15 0 11 -4 -4 -13 1 -21 11 -9 10 -11 11 -7 2 7 -13 5 -13 -9
-1 -9 7 -14 17 -11 22 3 5 0 8 -8 7 -7 -2 -12 2 -11 9 2 7 -4 10 -13 6 -9 -3
-14 0 -12 8 2 8 -3 13 -9 12 -7 -2 -13 2 -13 8 0 5 -6 7 -12 3 -8 -5 -7 0 2
11 9 11 10 16 3 11 -7 -4 -13 -2 -13 4 0 5 -15 19 -32 30 -19 11 -26 20 -18
21 8 1 4 4 -10 8 -14 4 -24 13 -23 19 2 7 -3 12 -10 12 -14 0 -48 36 -41 43 3
3 -7 8 -21 11 -14 4 -24 10 -21 15 3 4 -1 17 -9 27 -15 19 -15 18 -10 -1 3
-11 -2 -5 -10 13 -14 30 -25 37 -49 33 -5 -1 -4 5 4 13 12 16 5 21 -21 18 -4
-1 -6 12 -5 28 1 20 -1 26 -9 20 -7 -6 -12 1 -13 22 -2 18 -7 37 -12 43 -5 7
-12 25 -14 41 -4 35 -16 67 -28 75 -5 3 -10 15 -11 27 0 11 -5 18 -9 16 -4 -3
-8 5 -8 17 0 12 -3 19 -7 16 -3 -4 -11 3 -18 16 -6 12 -17 21 -25 19 -7 -2
-10 3 -7 12 4 10 -2 20 -14 26 -11 6 -16 16 -13 22 5 7 2 8 -5 4 -15 -10 -51
21 -51 43 0 13 -2 13 -9 3 -7 -11 -9 -11 -14 2 -4 9 -18 21 -32 26 -14 5 -25
15 -25 21 0 6 -7 8 -17 5 -10 -4 -14 -4 -11 0 8 8 -16 34 -31 34 -6 0 -11 4
-11 10 0 5 -6 9 -12 7 -7 -1 -12 3 -11 9 1 6 -9 10 -23 8 -13 -1 -22 2 -19 6
3 5 1 11 -5 15 -5 3 -10 0 -10 -7 0 -7 -7 -2 -16 10 -8 12 -22 22 -30 22 -10
0 -12 5 -8 13 5 8 2 8 -9 -2 -11 -9 -17 -10 -17 -2 0 6 -7 11 -15 11 -8 0 -15
5 -15 11 0 5 -4 8 -9 4 -5 -3 -16 2 -24 10 -9 8 -23 15 -32 15 -10 0 -13 5 -9
13 5 8 2 8 -9 -2 -11 -9 -17 -10 -17 -2 0 6 -7 11 -16 11 -9 0 -12 5 -8 13 5
8 2 8 -9 -2 -11 -9 -17 -10 -17 -2 0 6 -9 11 -19 11 -11 0 -22 6 -24 13 -4 10
-6 10 -6 0 -1 -7 -6 -13 -12 -13 -5 0 -8 4 -5 9 6 9 -50 27 -68 22 -5 -1 -18
6 -30 16 -19 17 -20 17 -7 0 12 -15 12 -17 -3 -11 -9 3 -16 11 -16 18 0 6 -5
4 -10 -4 -8 -12 -10 -12 -10 -1 0 11 -3 11 -17 0 -11 -10 -14 -10 -9 -1 7 11
-14 16 -76 15 -10 0 -18 5 -18 11 0 6 -5 5 -12 -2 -15 -15 -32 -16 -23 -2 7
12 -23 9 -44 -4 -10 -6 -12 -5 -7 2 4 7 1 12 -8 12 -9 0 -16 -6 -16 -12 0 -9
-3 -9 -8 -3 -4 6 -14 10 -22 10 -8 -1 -21 4 -29 9 -11 8 -13 8 -7 -1 9 -16 -6
-17 -21 -2 -8 8 -13 7 -18 -2 -6 -8 -4 -10 5 -4 8 5 11 4 6 -3 -4 -6 -13 -9
-21 -6 -8 4 -12 11 -8 17 4 6 1 7 -8 1 -8 -4 -27 -7 -43 -5 -21 2 -26 0 -20
-11 8 -14 -23 7 -39 27 -5 6 -7 3 -3 -8 5 -14 1 -16 -25 -12 -18 3 -38 0 -47
-7 -9 -8 -13 -8 -9 -2 4 7 -2 14 -13 17 -11 3 -18 1 -14 -4 3 -5 -2 -9 -11 -9
-10 0 -13 5 -9 13 6 9 4 9 -7 1 -8 -6 -35 -10 -61 -10 -25 1 -44 -2 -41 -6 2
-5 0 -8 -6 -8 -5 0 -12 6 -15 13 -3 9 -9 7 -19 -5 -8 -10 -17 -15 -20 -11 -4
3 -13 1 -21 -6 -11 -9 -15 -9 -19 1 -3 8 -6 6 -6 -5 -1 -10 -5 -16 -10 -13
-13 8 -42 -4 -35 -15 3 -5 -2 -6 -10 -3 -9 4 -16 1 -16 -6 0 -7 -7 -10 -16 -6
-8 3 -12 2 -9 -4 6 -9 -34 -36 -48 -32 -4 1 -6 -1 -6 -5 1 -5 1 -15 0 -23 -1
-13 -2 -13 -11 0 -6 10 -10 11 -10 3 0 -18 -41 -63 -51 -57 -5 3 -6 -3 -2 -12
4 -12 3 -15 -5 -10 -7 4 -12 1 -12 -9 0 -9 -5 -13 -11 -9 -7 4 -10 1 -7 -7 3
-8 -3 -21 -12 -29 -9 -8 -19 -23 -23 -33 -4 -10 -10 -16 -14 -14 -5 3 -9 -6
-10 -21 0 -14 -8 -29 -17 -34 -9 -5 -14 -13 -11 -19 4 -5 1 -9 -6 -9 -7 0 -10
-3 -6 -6 3 -3 -6 -27 -20 -52 -15 -27 -20 -43 -12 -37 8 6 6 2 -4 -7 -13 -13
-15 -18 -6 -18 9 0 10 -3 3 -8 -6 -4 -14 -20 -18 -35 -4 -18 -11 -25 -19 -20
-8 4 -7 1 2 -10 9 -11 10 -17 2 -17 -6 0 -11 -5 -11 -11 0 -5 6 -7 13 -3 8 5
8 3 -2 -9 -7 -9 -18 -14 -25 -10 -6 3 -2 -4 9 -16 11 -12 15 -22 10 -21 -6 2
-17 2 -25 1 -13 -1 -13 -3 -1 -10 13 -8 13 -12 0 -27 -12 -16 -12 -17 1 -9 13
8 13 7 1 -8 -9 -12 -10 -17 -2 -17 7 0 0 -11 -15 -25 -30 -27 -39 -32 -28 -12
5 8 2 8 -9 -2 -13 -10 -17 -10 -17 -1 0 9 -4 9 -17 -1 -15 -12 -16 -12 -8 1 8
13 7 13 -8 1 -13 -10 -17 -10 -17 -1 0 10 -3 10 -15 0 -12 -10 -15 -10 -15 0
0 10 -3 10 -14 1 -11 -9 -15 -9 -19 1 -4 11 -6 10 -6 0 -1 -8 -6 -10 -13 -5
-21 12 -38 12 -38 0 0 -7 -5 -5 -10 3 -9 13 -10 13 -10 0 0 -9 -3 -11 -8 -5
-9 13 -30 18 -64 16 -16 -1 -28 4 -28 10 0 6 -7 8 -16 5 -8 -3 -13 -2 -9 3 8
15 -6 42 -19 34 -6 -4 -5 1 3 10 9 12 10 17 2 17 -7 0 -9 5 -6 10 4 6 12 7 18
3 7 -3 3 4 -8 17 -11 13 -14 20 -7 16 6 -4 12 -2 12 3 0 6 -5 11 -11 11 -8 0
-8 4 -1 13 12 14 -10 51 -24 39 -4 -4 -3 0 3 9 10 12 9 18 -6 29 -11 7 -17 19
-15 25 3 7 -2 20 -11 29 -9 9 -17 25 -18 35 0 11 -4 18 -7 16 -3 -1 -11 3 -18
11 -10 11 -10 14 0 14 7 1 3 6 -10 13 -18 10 -20 15 -10 26 7 7 9 12 3 11 -23
-5 -33 1 -31 18 0 9 -5 16 -12 14 -8 -1 -11 2 -8 7 4 5 2 12 -4 16 -6 4 -7 11
-4 17 5 7 2 9 -8 5 -11 -4 -15 0 -13 11 1 9 -10 25 -24 36 -15 10 -18 16 -8
12 11 -3 16 -2 12 4 -3 6 -14 10 -23 11 -10 0 -12 3 -5 6 10 3 10 7 0 18 -7 7
-15 11 -19 8 -5 -2 -8 1 -8 7 0 6 -4 8 -10 5 -5 -3 -10 1 -10 10 0 9 -4 13
-10 10 -9 -6 -14 8 -11 28 0 4 -6 7 -14 7 -15 0 -38 33 -30 44 3 3 2 4 -1 2
-3 -2 -14 3 -24 12 -40 36 -55 47 -62 45 -5 -2 -8 2 -8 7 0 6 -7 10 -15 10 -8
0 -15 6 -15 13 0 8 -4 7 -10 -3 -6 -10 -10 -11 -10 -2 0 6 -7 12 -15 12 -8 0
-15 5 -15 12 0 9 -3 9 -11 1 -9 -9 -16 -9 -29 0 -14 8 -23 7 -37 -4 -16 -13
-17 -12 -5 3 9 11 10 18 2 23 -5 3 -10 1 -10 -4 0 -6 -5 -11 -11 -11 -5 0 -8
4 -5 8 3 5 -1 9 -9 9 -8 0 -12 -4 -9 -8 5 -9 -30 -4 -46 6 -6 4 -17 2 -25 -5
-10 -9 -16 -7 -24 7 -10 17 -12 17 -24 1 -9 -11 -18 -14 -28 -7 -12 7 -12 9 0
9 8 0 11 3 8 7 -4 3 -17 -2 -29 -13 -19 -17 -21 -17 -15 -1 4 9 2 17 -3 17 -6
0 -10 -4 -10 -10 0 -5 -5 -10 -11 -10 -5 0 -7 6 -4 13 4 6 -1 3 -9 -7 -14 -18
-21 -15 -17 7 2 11 -9 8 -25 -8 -15 -15 -48 -10 -38 6 10 16 -8 9 -23 -8 -14
-17 -14 -17 -8 2 5 16 4 18 -6 8 -15 -15 -33 -17 -24 -3 3 6 1 10 -4 10 -6 0
-11 -4 -11 -10 0 -5 -5 -10 -11 -10 -5 0 -7 6 -4 13 4 6 -1 3 -9 -7 -14 -18
-21 -15 -17 7 2 14 -17 7 -23 -8 -5 -14 -9 -14 -33 2 -24 15 -26 15 -15 1z
m697 -133 c14 -14 25 -31 25 -37 0 -5 -13 4 -30 22 -16 18 -30 34 -30 36 0 9
11 3 35 -21z m55 -46 c0 -5 -4 -9 -8 -9 -5 0 -9 7 -9 15 0 8 4 12 9 9 4 -3 8
-9 8 -15z m31 -42 c-10 -9 -11 -8 -5 6 3 10 9 15 12 12 3 -3 0 -11 -7 -18z
m-1506 -67 c3 -5 1 -10 -4 -10 -6 0 -11 5 -11 10 0 6 2 10 4 10 3 0 8 -4 11
-10z m-31 -18 c-6 -4 -15 -15 -21 -26 -9 -16 -11 -17 -16 -2 -4 10 -3 15 2 12
5 -3 11 1 15 9 3 8 11 15 18 15 9 0 9 -3 2 -8z m-61 -43 c-8 -8 -13 -7 -18 2
-5 8 -4 10 3 5 7 -4 12 -2 12 5 0 7 3 9 7 6 4 -4 2 -12 -4 -18z m-31 -20 c2
-2 1 -3 -1 -1 -2 1 -13 -5 -23 -15 -11 -9 -18 -11 -18 -5 0 7 5 12 11 12 5 0
8 4 5 9 -4 5 1 8 9 7 8 -1 16 -4 17 -7z m1940 -326 c-11 -21 -4 -52 7 -34 4 6
7 -5 8 -24 1 -19 -3 -37 -7 -40 -4 -3 -6 5 -2 17 4 16 2 19 -8 13 -9 -5 -11
-4 -6 3 4 7 3 20 -3 29 -9 16 1 53 15 53 2 0 1 -8 -4 -17z m51 -118 c-3 -9 -8
-14 -10 -11 -3 3 -2 9 2 15 9 16 15 13 8 -4z m4187 -1475 c0 -5 -5 -10 -11
-10 -5 0 -7 5 -4 10 3 6 8 10 11 10 2 0 4 -4 4 -10z m-8385 -309 c-3 -5 0 -13
5 -16 8 -5 6 -13 -6 -26 -12 -14 -13 -19 -4 -19 7 0 11 -3 7 -6 -3 -3 -11 -3
-17 1 -8 5 -6 12 5 25 11 12 13 20 5 25 -10 6 -5 25 6 25 3 0 3 -4 -1 -9z
m-15 -89 c0 -5 -7 -9 -15 -9 -8 0 -12 4 -9 9 3 4 9 8 15 8 5 0 9 -4 9 -8z
m-13 -44 c-3 -8 -6 -5 -6 6 -1 11 2 17 5 13 3 -3 4 -12 1 -19z m-42 -388 c-2
-11 1 -20 6 -20 6 0 7 -5 3 -11 -9 -15 -23 8 -19 30 5 21 4 21 9 21 3 0 3 -9
1 -20z m24 -101 c-6 -12 -5 -19 3 -21 8 -3 6 -7 -4 -11 -13 -4 -16 -1 -12 16
2 11 -2 24 -9 29 -7 4 -4 6 10 5 17 -1 20 -5 12 -18z m14 -64 c-7 -21 -12 -19
-10 4 0 11 5 18 9 15 4 -3 5 -11 1 -19z m1912 -1395 c3 -5 1 -10 -4 -10 -6 0
-11 5 -11 10 0 6 2 10 4 10 3 0 8 -4 11 -10z m165 -30 c0 -5 -5 -10 -11 -10
-5 0 -7 5 -4 10 3 6 8 10 11 10 2 0 4 -4 4 -10z m46 -26 c1 -9 0 -13 -4 -10
-3 4 -7 14 -8 22 -1 9 0 13 4 10 3 -4 7 -14 8 -22z m866 -100 c18 2 28 -2 31
-13 6 -23 -97 -23 -111 0 -9 13 -6 16 14 13 13 -1 24 3 24 9 0 9 2 9 8 0 4 -6
19 -10 34 -9z m59 -14 c6 0 7 4 4 10 -3 6 1 7 10 4 11 -5 13 -10 6 -17 -12
-12 -41 -2 -40 15 0 10 2 10 6 1 2 -7 9 -13 14 -13z m70 3 c13 -16 12 -17 -3
-4 -14 11 -18 11 -18 1 0 -8 -3 -11 -6 -7 -5 5 3 27 10 27 2 0 10 -8 17 -17z
m36 2 c0 -8 -4 -12 -9 -9 -5 3 -6 10 -3 15 9 13 12 11 12 -6z m-1237 -21 c0
-8 5 -12 10 -9 10 6 14 -7 11 -34 -2 -8 3 -10 11 -6 7 4 2 -3 -12 -15 -14 -12
-18 -18 -10 -14 8 4 5 -3 -8 -16 -13 -12 -21 -28 -18 -36 3 -8 0 -11 -10 -7
-11 4 -12 9 -5 16 6 6 11 26 11 45 0 22 4 31 12 26 7 -4 8 -3 4 5 -12 18 -15
61 -5 61 5 0 9 -7 9 -16z m-70 -115 c-7 -11 -14 -18 -17 -15 -3 3 0 12 7 21
18 21 23 19 10 -6z m30 -123 c0 -3 -4 -8 -10 -11 -5 -3 -10 -1 -10 4 0 6 5 11
10 11 6 0 10 -2 10 -4z m-18 -63 c-10 -4 -10 -8 0 -21 12 -15 11 -16 -4 -3
-19 14 -15 32 5 30 8 0 8 -2 -1 -6z m5732 -9 c3 -8 2 -12 -4 -9 -6 3 -10 10
-10 16 0 14 7 11 14 -7z m-5730 -62 c-1 -12 3 -22 8 -22 5 0 6 -4 3 -10 -3 -5
-1 -10 5 -10 6 0 8 -4 5 -10 -3 -5 -1 -10 4 -10 6 0 11 -4 11 -8 0 -12 -68
-14 -75 -2 -3 5 -1 11 4 15 6 3 7 13 4 22 -5 12 -3 14 8 8 12 -7 12 -6 1 7
-10 13 -10 17 5 22 15 6 15 9 3 17 -13 9 -13 10 0 6 8 -2 14 -14 14 -25z
m5946 -326 c0 -2 -7 -7 -16 -10 -8 -3 -12 -2 -9 4 6 10 25 14 25 6z m-6189
-239 c-10 -9 -11 -8 -5 6 3 10 9 15 12 12 3 -3 0 -11 -7 -18z m3249 -302 c0 6
21 10 47 11 25 0 41 -2 34 -4 -6 -2 -9 -7 -7 -11 5 -7 -2 -9 -41 -12 -10 -1
-24 -6 -30 -12 -9 -6 -13 -5 -13 4 0 11 -2 11 -10 -1 -7 -11 -10 -11 -10 -2 0
7 -4 10 -10 7 -6 -3 -7 1 -4 9 3 9 10 13 15 10 5 -3 9 1 9 8 0 9 3 9 10 -2 5
-8 10 -10 10 -5z m-1294 -682 c-2 -15 -11 -16 -40 -7 -11 4 -14 9 -8 13 19 12
50 7 48 -6z m50 -5 c4 -7 3 -8 -4 -4 -7 4 -12 2 -12 -5 0 -7 -3 -10 -6 -6 -6
5 3 27 11 27 2 0 7 -5 11 -12z m91 -12 c5 -4 1 -6 -7 -4 -8 2 -14 -3 -12 -9 3
-19 -6 -16 -17 5 -8 15 -6 18 9 17 11 -1 23 -5 27 -9z m-982 -466 c-3 -5 -12
-10 -18 -10 -7 0 -6 4 3 10 19 12 23 12 15 0z"/>
<path d="M7400 7986 c0 -2 8 -10 18 -17 15 -13 16 -12 3 4 -13 16 -21 21 -21
13z"/>
<path d="M1660 4096 c0 -2 8 -10 18 -17 15 -13 16 -12 3 4 -13 16 -21 21 -21
13z"/>
<path d="M8720 1761 c0 -6 4 -12 8 -15 5 -3 9 1 9 9 0 8 -4 15 -9 15 -4 0 -8
-4 -8 -9z"/>
</g>
</svg>
